<svg width="25" height="25" viewBox="0 0 25 25" fill="none" xmlns="http://www.w3.org/2000/svg">
<path d="M23.3255 10.6294L24.5964 11.8681C25.1345 12.3926 25.1345 13.2407 24.5964 13.7596L13.4732 24.6066C12.9351 25.1311 12.0649 25.1311 11.5325 24.6066L0.403595 13.7596C-0.134532 13.2351 -0.134532 12.387 0.403595 11.8681L1.67449 10.6294C2.21834 10.0993 3.10568 10.1105 3.63808 10.6517L10.2101 17.3753V1.33914C10.2101 0.597032 10.8226 0 11.584 0H13.416C14.1774 0 14.7899 0.597032 14.7899 1.33914V17.3753L21.3619 10.6517C21.8943 10.1049 22.7817 10.0937 23.3255 10.6294Z" fill="black"/>
</svg>
