<svg width="25" height="19" viewBox="0 0 25 19" fill="none" xmlns="http://www.w3.org/2000/svg">
<path d="M0.340576 8.54706L8.5437 0.343931C9.27612 -0.388491 10.5457 0.124205 10.5457 1.17401V5.86151H17.1863C17.8357 5.86151 18.3582 6.38397 18.3582 7.03339V11.7209C18.3582 12.3703 17.8357 12.8928 17.1863 12.8928L10.5457 12.8928V17.5803C10.5457 18.6252 9.28101 19.1428 8.5437 18.4103L0.340576 10.2072C-0.113525 9.74823 -0.113525 9.00604 0.340576 8.54706ZM15.2332 0.588072V2.5412C15.2332 2.86346 15.4968 3.12714 15.8191 3.12714L19.9207 3.12714C20.7849 3.12714 21.4832 3.82538 21.4832 4.68964V14.0646C21.4832 14.9289 20.7849 15.6271 19.9207 15.6271H15.8191C15.4968 15.6271 15.2332 15.8908 15.2332 16.2131V18.1662C15.2332 18.4885 15.4968 18.7521 15.8191 18.7521H19.9207C22.5085 18.7521 24.6082 16.6525 24.6082 14.0646V4.68964C24.6082 2.10174 22.5085 0.00213432 19.9207 0.00213432H15.8191C15.4968 0.00213432 15.2332 0.265806 15.2332 0.588072Z" fill="black"/>
</svg>
