<svg width="30" height="25" viewBox="0 0 30 25" fill="none" xmlns="http://www.w3.org/2000/svg">
<path d="M30 12.4764C30.0153 19.3635 23.2754 24.9952 15.0109 25C11.4414 25.0021 8.16271 23.9652 5.58616 22.2323C4.91619 21.7817 4.8661 20.9449 5.47493 20.4376L6.15641 19.8697C6.67711 19.4358 7.5084 19.3883 8.0853 19.7697C9.98358 21.025 12.3859 21.7742 15 21.7742C21.1515 21.7742 26.129 17.6255 26.129 12.5C26.129 7.37375 21.1505 3.22581 15 3.22581C12.0475 3.22581 9.36598 4.18191 7.37491 5.74255L10.4447 8.30072C11.0544 8.80879 10.6226 9.67744 9.76046 9.67744H0.967741C0.433246 9.67744 0 9.3164 0 8.87099V1.5437C0 0.825254 1.04238 0.465424 1.65205 0.973439L4.63826 3.46195C7.33118 1.31734 10.981 0 15 0C23.2748 0 29.9847 5.58368 30 12.4764ZM19.0577 16.4474L19.6519 15.8108C20.1441 15.2834 20.0301 14.5234 19.3972 14.1132L16.9355 12.5176V7.25808C16.9355 6.58998 16.2856 6.0484 15.4839 6.0484H14.5161C13.7144 6.0484 13.0645 6.58998 13.0645 7.25808V14.0953L17.0207 16.6596C17.6535 17.0697 18.5655 16.9747 19.0577 16.4474Z" fill="black"/>
</svg>
