<svg width="50" height="32" viewBox="0 0 50 32" fill="none" xmlns="http://www.w3.org/2000/svg">
<path d="M11.8828 14.02C11.6094 12.81 11.2734 10.7 11.2734 10.7H11.2344C11.2344 10.7 10.8984 12.81 10.625 14.02L9.75781 17.77H12.7344L11.8828 14.02ZM48.125 0H26.25V32H48.125C49.1641 32 50 30.93 50 29.6V2.4C50 1.07 49.1641 0 48.125 0ZM46.25 12C46.25 12.66 45.8281 13.2 45.3125 13.2H44.4219C43.8828 15.56 42.7266 17.94 41.0859 20.19C41.7422 20.83 42.4219 21.44 43.125 21.99C43.5547 22.33 43.6953 23.04 43.4453 23.61L42.8281 25C42.5625 25.59 41.9766 25.78 41.5234 25.43C40.5391 24.65 39.6094 23.82 38.7578 22.94C37.9062 23.81 36.9844 24.65 35.9922 25.43C35.5391 25.78 34.9531 25.59 34.6875 25L34.0703 23.61C33.8203 23.05 33.9609 22.33 34.3984 21.99C35.125 21.42 35.8047 20.82 36.4375 20.19C35.8203 19.35 35.2734 18.49 34.7969 17.62C34.4844 17.05 34.625 16.26 35.0859 15.91L35.5938 15.52L36.1641 15.09C36.5859 14.77 37.1328 14.92 37.4141 15.43C37.8047 16.13 38.2578 16.83 38.7734 17.52C39.8281 16.1 40.6328 14.63 41.1172 13.2H32.1875C31.6719 13.2 31.25 12.66 31.25 12V10.4C31.25 9.74 31.6719 9.2 32.1875 9.2H37.1875V7.6C37.1875 6.94 37.6094 6.4 38.125 6.4H39.375C39.8906 6.4 40.3125 6.94 40.3125 7.6V9.2H45.3125C45.8281 9.2 46.25 9.74 46.25 10.4V12ZM0 2.4V29.6C0 30.93 0.835938 32 1.875 32H23.75V0H1.875C0.835938 0 0 1.07 0 2.4ZM4.60156 24.01L9.09375 7.1C9.22656 6.61 9.57812 6.29 9.98438 6.29H12.5234C12.9219 6.29 13.2812 6.62 13.4141 7.1L17.9062 24.01C18.1094 24.79 17.6641 25.6 17.0156 25.6H15.2266C15.0244 25.5998 14.8277 25.516 14.6658 25.361C14.5038 25.206 14.3854 24.9882 14.3281 24.74L13.5938 21.55H8.89062L8.17969 24.73C8.0625 25.24 7.69531 25.6 7.28125 25.6H5.49219C4.85156 25.6 4.39844 24.79 4.60156 24.01Z" fill="black"/>
</svg>
