<svg width="35" height="35" viewBox="0 0 35 35" fill="none" xmlns="http://www.w3.org/2000/svg">
<path d="M17.4999 2.91675C18.2735 2.91675 19.0153 3.22404 19.5623 3.77102C20.1093 4.318 20.4166 5.05987 20.4166 5.83341C20.4166 6.91258 19.8333 7.8605 18.9583 8.35633V10.2084H20.4166C23.124 10.2084 25.7205 11.2839 27.635 13.1984C29.5494 15.1128 30.6249 17.7093 30.6249 20.4167H32.0833C32.47 20.4167 32.841 20.5704 33.1144 20.8439C33.3879 21.1174 33.5416 21.4883 33.5416 21.8751V26.2501C33.5416 26.6369 33.3879 27.0078 33.1144 27.2813C32.841 27.5548 32.47 27.7084 32.0833 27.7084H30.6249V29.1667C30.6249 29.9403 30.3176 30.6822 29.7706 31.2291C29.2237 31.7761 28.4818 32.0834 27.7083 32.0834H7.29158C6.51804 32.0834 5.77617 31.7761 5.22919 31.2291C4.68221 30.6822 4.37492 29.9403 4.37492 29.1667V27.7084H2.91659C2.52981 27.7084 2.15888 27.5548 1.88539 27.2813C1.6119 27.0078 1.45825 26.6369 1.45825 26.2501V21.8751C1.45825 21.4883 1.6119 21.1174 1.88539 20.8439C2.15888 20.5704 2.52981 20.4167 2.91659 20.4167H4.37492C4.37492 17.7093 5.45044 15.1128 7.36487 13.1984C9.2793 11.2839 11.8758 10.2084 14.5833 10.2084H16.0416V8.35633C15.1666 7.8605 14.5833 6.91258 14.5833 5.83341C14.5833 5.05987 14.8905 4.318 15.4375 3.77102C15.9845 3.22404 16.7264 2.91675 17.4999 2.91675ZM10.9374 18.9584C9.97048 18.9584 9.04315 19.3425 8.35942 20.0263C7.6757 20.71 7.29158 21.6373 7.29158 22.6042C7.29158 23.5712 7.6757 24.4985 8.35942 25.1822C9.04315 25.866 9.97048 26.2501 10.9374 26.2501C11.9044 26.2501 12.8317 25.866 13.5154 25.1822C14.1991 24.4985 14.5833 23.5712 14.5833 22.6042C14.5833 21.6373 14.1991 20.71 13.5154 20.0263C12.8317 19.3425 11.9044 18.9584 10.9374 18.9584ZM24.0624 18.9584C23.0955 18.9584 22.1681 19.3425 21.4844 20.0263C20.8007 20.71 20.4166 21.6373 20.4166 22.6042C20.4166 23.5712 20.8007 24.4985 21.4844 25.1822C22.1681 25.866 23.0955 26.2501 24.0624 26.2501C25.0294 26.2501 25.9567 25.866 26.6404 25.1822C27.3241 24.4985 27.7083 23.5712 27.7083 22.6042C27.7083 21.6373 27.3241 20.71 26.6404 20.0263C25.9567 19.3425 25.0294 18.9584 24.0624 18.9584Z" fill="white"/>
</svg>
