<svg width="60" height="60" viewBox="0 0 60 60" fill="none" xmlns="http://www.w3.org/2000/svg">
<path d="M55 35H52.5C52.5 25.325 44.675 17.5 35 17.5H32.5V14.325C33.2603 13.886 33.8916 13.2547 34.3304 12.4943C34.7693 11.734 35.0002 10.8715 35 9.99359C34.9998 9.11569 34.7684 8.25332 34.3292 7.49321C33.8899 6.73309 33.2583 6.10202 32.4978 5.66346C31.7373 5.2249 30.8747 4.99431 29.9968 4.99487C29.1189 4.99544 28.2566 5.22714 27.4967 5.66667C26.7367 6.1062 26.1059 6.73808 25.6676 7.49876C25.2294 8.25944 24.9991 9.1221 25 10C25 11.85 26 13.475 27.5 14.325V17.5H25C15.325 17.5 7.5 25.325 7.5 35H5C3.625 35 2.5 36.125 2.5 37.5V45C2.5 46.375 3.625 47.5 5 47.5H7.5V50C7.5 51.3261 8.02678 52.5978 8.96447 53.5355C9.90215 54.4732 11.1739 55 12.5 55H47.5C50.275 55 52.5 52.775 52.5 50V47.5H55C56.375 47.5 57.5 46.375 57.5 45V37.5C57.5 36.125 56.375 35 55 35ZM24.475 41.25C23.5 39.05 21.325 37.5 18.75 37.5C16.175 37.5 14 39.05 13.025 41.25C12.7 40.475 12.5 39.65 12.5 38.75C12.5 37.0924 13.1585 35.5027 14.3306 34.3306C15.5027 33.1585 17.0924 32.5 18.75 32.5C20.4076 32.5 21.9973 33.1585 23.1694 34.3306C24.3415 35.5027 25 37.0924 25 38.75C25 39.65 24.8 40.475 24.475 41.25ZM46.975 41.25C46 39.05 43.75 37.5 41.25 37.5C38.75 37.5 36.5 39.05 35.525 41.25C35.2 40.475 35 39.65 35 38.75C35 37.0924 35.6585 35.5027 36.8306 34.3306C38.0027 33.1585 39.5924 32.5 41.25 32.5C42.9076 32.5 44.4973 33.1585 45.6694 34.3306C46.8415 35.5027 47.5 37.0924 47.5 38.75C47.5 39.65 47.3 40.475 46.975 41.25Z" fill="#02011D"/>
</svg>
