<svg width="35" height="35" viewBox="0 0 35 35" fill="none" xmlns="http://www.w3.org/2000/svg">
<path d="M34.0278 30.625H33.0556V6.5625H1.94444V30.625H0.973437C0.436285 30.625 0.00121528 31.1145 0.00121528 31.7188V33.9062C0.00121528 34.5105 0.436285 35 0.973437 35H10.6944C11.2316 35 11.6667 34.5105 11.6667 33.9062V21.875C11.6667 18.2506 14.2783 15.3125 17.5 15.3125C20.7217 15.3125 23.3333 18.2506 23.3333 21.875L23.3345 32.8125V33.9062C23.3345 34.5105 23.7696 35 24.3068 35H34.0278C34.5649 35 35 34.5105 35 33.9062V31.7188C35 31.1145 34.5649 30.625 34.0278 30.625ZM34.0278 0H0.972222C0.435069 0 0 0.489453 0 1.09375V3.28125C0 3.88555 0.435069 4.375 0.972222 4.375H34.0278C34.5649 4.375 35 3.88555 35 3.28125V1.09375C35 0.489453 34.5649 0 34.0278 0Z" fill="black"/>
</svg>
