<svg width="8" height="25" viewBox="0 0 8 25" fill="none" xmlns="http://www.w3.org/2000/svg">
<path d="M7.8125 21.0938C7.8125 23.2477 6.06016 25 3.90625 25C1.75234 25 0 23.2477 0 21.0938C0 18.9398 1.75234 17.1875 3.90625 17.1875C6.06016 17.1875 7.8125 18.9398 7.8125 21.0938ZM0.452148 1.23042L1.11621 14.5117C1.14741 15.1354 1.66216 15.625 2.28662 15.625H5.52588C6.15034 15.625 6.66509 15.1354 6.69629 14.5117L7.36035 1.23042C7.3938 0.561035 6.86016 0 6.18994 0H1.62256C0.952344 0 0.418701 0.561035 0.452148 1.23042Z" fill="black"/>
</svg>
